<?xml version="1.0" encoding="UTF-8"?>
<svg width="50px" height="50px" viewBox="0 0 191 127" version="1.1" xmlns="http://www.w3.org/2000/svg" xmlns:xlink="http://www.w3.org/1999/xlink">
    <title>路径备份 3</title>
    <g id="控件" stroke="none" stroke-width="1" fill="none" fill-rule="evenodd">
        <g id="编组-2" transform="translate(-355, -451)" fill="#1F2329" fill-rule="nonzero">
            <path d="M355.022698,561.113685 C367.563423,529.268189 378.912495,497.070871 393.688987,466.133301 C395.289206,463.035004 396.719189,460.231783 398.841466,457.224279 C400.294147,455.453824 401.281516,453.78551 404.118784,452.537112 C409.634433,450.301345 414.673421,454.863672 416.205546,459.845915 C419.179003,469.44723 418.872578,479.559253 419.167654,489.251361 C419.21305,507.738999 419.448331,526.067751 421.604655,544.283011 C422.27425,549.583028 423.211804,562.509552 425.788043,557.538659 C428.364283,552.567765 430.437283,545.542758 432.536861,539.924968 C441.048665,516.931748 447.404145,492.92846 456.51745,469.980636 C459.649794,462.512947 465.82369,446.476708 476.662053,453.683369 C482.427382,458.461328 481.871278,469.719607 482.291193,476.449607 C482.790552,501.224632 481.247079,532.990616 482.45008,557.538659 C482.892694,562.498203 484.697765,561.102336 493.719709,541.967801 C501.357634,525.454901 507.815256,508.397245 513.27416,490.965071 C516.962609,479.309573 520.276538,467.495189 522.886824,455.453824 C522.886824,455.453824 545.653063,463.523014 545.653063,463.523014 C536.051748,482.78239 523.726656,511.3934 514.897077,531.345069 C509.631108,542.977868 504.524026,554.247497 497.476252,565.176653 C493.662963,570.510717 489.906421,576.707311 482.45008,577.683331 C469.035477,577.93301 469.00143,560.069571 468.309136,550.683888 C467.787079,537.93888 468.229693,525.602439 468.615561,513.265997 C469.00143,500.974952 471.135823,488.388831 470.93154,476.449607 C470.93154,471.903889 469.863959,471.042225 468.309136,474.696626 C463.871649,485.693877 460.262644,497.570231 456.358563,509.180331 C452.477181,520.847177 448.652543,532.570769 444.226405,544.283011 C441.979289,550.150482 439.675427,555.983905 436.565782,561.908121 C434.511599,565.494427 433.149711,568.297648 429.449913,571.339199 C424.524416,575.311375 417.839812,573.302589 414.877705,568.070667 C412.392258,563.928255 411.541077,558.957362 410.916878,554.803601 C408.488177,533.149572 408.47298,510.78055 406.63443,489.251361 C405.862693,480.648764 404.708936,474.894784 402.666103,480.160754 C398.478295,491.509826 394.687705,503.142625 391.169493,514.775424 C385.846778,532.30974 380.887234,550.071038 376.472445,567.832336 C376.472445,567.832336 355,561.102336 355,561.102336 L355.022698,561.113685 Z" id="路径备份-3"></path>
        </g>
    </g>
</svg>